<svg width="352" height="352" viewBox="0 0 352 352" fill="none" xmlns="http://www.w3.org/2000/svg">
<rect width="352" height="352" fill="#FEEBF6"/>
<path d="M167.376 156.364L159.74 160L150.467 173.818L145.922 187.636V206L149.558 213.273L156.649 216.727H164.103L171.74 212.909L180.649 199.455L185.558 185.636V171.818L181.194 159.636L174.649 156.364H167.376ZM212.831 106.182H213.012C213.134 106.182 213.315 106.242 213.558 106.364C213.8 106.364 213.982 106.364 214.103 106.364H217.194H217.74L218.285 106.182C220.346 106.182 222.043 106.97 223.376 108.545L223.558 108.727L223.74 108.909C224.467 110.364 224.831 111.636 224.831 112.727C224.831 113.939 224.649 114.909 224.285 115.636L203.74 188.182L198.467 208.364V215.455L199.922 216.727H205.012L212.831 208.909L217.74 199.455C219.073 196.909 221.073 195.636 223.74 195.636C225.558 195.636 227.073 196.303 228.285 197.636C229.618 198.848 230.285 200.364 230.285 202.182C230.285 203.394 230.043 204.485 229.558 205.455L224.103 215.818C223.861 216.424 223.437 217.03 222.831 217.636L212.467 228C211.134 229.333 209.558 230 207.74 230H198.103H197.194H196.467H191.922C190.225 230 188.709 229.333 187.376 228L182.103 222.727C181.982 222.606 181.8 222.364 181.558 222C180.588 222.97 179.74 223.636 179.012 224L168.649 229.455C167.922 229.818 166.952 230 165.74 230H155.012C153.922 230 153.012 229.818 152.285 229.455L142.467 224.364C141.012 223.636 140.103 223.03 139.74 222.545L134.649 217.636C134.164 217.152 133.8 216.545 133.558 215.818L128.285 205.455C127.8 204.485 127.558 203.455 127.558 202.364V186.545C127.558 185.939 127.679 185.273 127.922 184.545L133.012 168.727L133.922 167.273L144.285 151.455C144.891 150.121 146.103 149.212 147.922 148.727L163.012 143.636H163.376C164.103 143.394 164.891 143.273 165.74 143.273H166.467H176.103C177.315 143.273 178.285 143.455 179.012 143.818L189.74 149.273C191.315 149.879 192.346 151.091 192.831 152.909L193.922 155.818L204.285 119.455H197.194H197.012C195.194 119.455 193.618 118.788 192.285 117.455C191.073 116.121 190.467 114.545 190.467 112.727C190.467 110.909 191.073 109.394 192.285 108.182C193.618 106.97 195.194 106.364 197.012 106.364H197.194H211.922C212.043 106.364 212.225 106.364 212.467 106.364C212.709 106.242 212.831 106.182 212.831 106.182Z" fill="#687FE5"/>
</svg>
